<svg width="138" height="16" viewBox="0 0 138 16" fill="none" xmlns="http://www.w3.org/2000/svg">
<path d="M1 7C0.447715 7 0 7.44772 0 8C0 8.55228 0.447715 9 1 9V7ZM137.707 8.70711C138.098 8.31658 138.098 7.68342 137.707 7.29289L131.343 0.928932C130.953 0.538408 130.319 0.538408 129.929 0.928932C129.538 1.31946 129.538 1.95262 129.929 2.34315L135.586 8L129.929 13.6569C129.538 14.0474 129.538 14.6805 129.929 15.0711C130.319 15.4616 130.953 15.4616 131.343 15.0711L137.707 8.70711ZM1 9H137V7H1V9Z" fill="black"/>
</svg>
